<svg width="100" height="100" viewBox="0 0 100 100" xmlns="http://www.w3.org/2000/svg">
  <rect width="100" height="100" fill="white" />
  <g stroke="black" stroke-width="2">
    <!-- Mechanical Component - Gear -->
    <circle cx="25" cy="25" r="10" fill="silver" />
    <path d="M23 15 L27 15 M23 35 L27 35 M15 23 L15 27 M35 23 L35 27" stroke="black" />
    <path d="M20 20 L30 30 M30 20 L20 30" stroke="black" />

    <!-- Electronic Component - Circuit Board -->
    <rect x="60" y="10" width="30" height="30" fill="green" />
    <circle cx="70" cy="20" r="3" fill="silver" />
    <circle cx="80" cy="20" r="3" fill="silver" />
    <circle cx="70" cy="30" r="3" fill="silver" />
    <circle cx="80" cy="30" r="3" fill="silver" />
    <path d="M70 23 L70 27 M80 23 L80 27 M73 20 L77 20 M73 30 L77 30" stroke="black" />

    <!-- Computer Control System - Computer Interface -->
    <rect x="25" y="60" width="50" height="30" fill="blue" />
    <path d="M30 65 L70 65 M30 75 L70 75" stroke="black" />

    <!-- Connections -->
    <path d="M25 25 L60 25" stroke="red" />
    <path d="M25 25 L50 60" stroke="red" />
    <path d="M75 25 L50 60" stroke="red" />
  </g>
</svg>
